<svg width="30" height="30" viewBox="0 0 30 30" fill="none" xmlns="http://www.w3.org/2000/svg">
<path d="M15.1131 25.8257C14.6576 25.8251 14.2025 25.7959 13.7506 25.7382C11.3442 25.4248 9.10886 24.3244 7.39286 22.6084C5.67686 20.8924 4.57649 18.6571 4.26312 16.2507C3.90122 13.5308 4.5796 10.7746 6.16255 8.53344C7.7455 6.29228 10.1163 4.73143 12.8006 4.16317C13.0949 4.09634 13.4024 4.1176 13.6847 4.2243C13.967 4.33099 14.2116 4.5184 14.3881 4.76317C14.569 5.01659 14.6714 5.31761 14.6825 5.62877C14.6936 5.93993 14.613 6.24749 14.4506 6.51317C13.6878 7.82214 13.3966 9.35304 13.6256 10.8507C13.8379 12.2267 14.483 13.4993 15.4675 14.4838C16.452 15.4683 17.7246 16.1134 19.1006 16.3257V16.3257C20.5999 16.5625 22.1348 16.2662 23.4381 15.4882C23.7062 15.3294 24.0151 15.2531 24.3263 15.2686C24.6375 15.2842 24.9372 15.391 25.1881 15.5757C25.4331 15.749 25.621 15.9914 25.7278 16.2719C25.8347 16.5523 25.8557 16.8582 25.7881 17.1507C25.2811 19.6054 23.9416 21.8096 21.9964 23.3903C20.0512 24.9711 17.6196 25.8314 15.1131 25.8257V25.8257ZM12.5006 6.25067C10.9921 6.69399 9.62482 7.52218 8.53322 8.65385C7.44161 9.78552 6.66323 11.1817 6.27455 12.7053C5.88587 14.2288 5.90028 15.8273 6.31634 17.3436C6.73241 18.8599 7.53583 20.2418 8.64764 21.3536C9.75946 22.4655 11.1414 23.2689 12.6577 23.685C14.174 24.101 15.7725 24.1154 17.296 23.7267C18.8196 23.3381 20.2158 22.5597 21.3474 21.4681C22.4791 20.3765 23.3073 19.0092 23.7506 17.5007C22.5672 18.0776 21.265 18.3692 19.9485 18.352C18.6321 18.3348 17.338 18.0093 16.17 17.4016C15.002 16.7939 13.9928 15.921 13.2231 14.8528C12.4535 13.7846 11.9449 12.5509 11.7381 11.2507C11.475 9.54524 11.7412 7.80015 12.5006 6.25067V6.25067Z" fill="white"/>
</svg>
